<svg xmlns="http://www.w3.org/2000/svg" width="277.763" height="412" viewBox="808.237 178 277.763 412"><g data-name="Illustration"><path d="m827.482 284.712 38.456 22.203c7.39-7.907 19.516-10.014 29.281-4.376 11.368 6.564 15.277 21.15 8.713 32.519-6.563 11.368-21.15 15.276-32.518 8.713-9.765-5.638-14.004-17.193-10.852-27.546l-9.86-5.693-1.919 3.326a5.375 5.375 0 0 1-9.31-5.376l1.92-3.325-6.65-3.84-4.992 8.646a5.375 5.375 0 1 1-9.31-5.375l4.99-8.646-3.324-1.92a5.375 5.375 0 1 1 5.375-9.31Zm49.307 49.749c6.234 3.599 14.234 1.455 17.833-4.779 3.6-6.234 1.456-14.233-4.778-17.832-6.234-3.6-14.234-1.456-17.833 4.778-3.6 6.234-1.456 14.233 4.778 17.833Z" fill="#3d3d3d" fill-rule="evenodd" data-name="Path [FILL:STYLE1/foreground]"/><path d="M968.287 201.737a22.423 22.423 0 0 1-10.869 8.97c-3.181 1.225-7.219 1.53-9.607-.904-1.73-1.763-2.075-4.476-1.83-6.934.767-7.671 6.532-14.351 13.686-17.225 7.153-2.875 15.411-2.246 22.55.664 6.736 2.745 13.133 8.37 13.496 15.635.185 3.723-1.163 7.822.836 10.969 1.505 2.37 4.412 3.333 7.016 4.382 2.604 1.05 5.399 2.705 5.933 5.462a6.111 6.111 0 0 1-1.793 5.21 14.146 14.146 0 0 1-4.816 3.019c-4.247 1.808-8.921 2.935-13.483 2.236-4.563-.699-8.974-3.477-10.76-7.733-1.374-3.278-1.093-6.976-.934-10.527.159-3.55.11-7.332-1.785-10.339-1.896-3.006-6.298-4.69-9.131-2.543" fill="#3c3c3c" fill-rule="evenodd" data-name="Path [FILL:STYLE1/BRAND]"/><path d="m1049.678 587.345 21.952-22.388c4.362-4.42 4.338-11.53-.052-15.92l-11.052-11.052a3.604 3.604 0 0 0-5.746.858c-2.72 5.289-6.427 8.14-11.226 8.285-2.878.087-3.331-.02-4.08 2.76l.924 20.943-3.798 4.321a8.944 8.944 0 0 0 13.078 12.193ZM901.22 566.325l31.353-.308c6.208-.041 11.22-5.085 11.22-11.294v-15.63a3.604 3.604 0 0 0-4.67-3.456c-5.663 1.815-10.3 1.21-13.797-2.08-2.096-1.973-2.34-2.37-4.836-.934l-14.155 15.462-5.741.37a8.944 8.944 0 0 0 .625 17.87Z" fill="#3c3c3c" fill-rule="evenodd" data-name="Path [FILL:STYLE1/brand]"/><path d="m918.53 518.902 35.28 10.454c42.961-69.745 104.477-144.906 80.58-195.131l-8.712-20.472-45.298 13.938-2.613 54.01-27.876 43.556-31.36 93.645Z" fill="#3d3d3d" fill-rule="evenodd" data-name="Path [FILL:STYLE1/foreground]"/><path d="m1038.745 303.02 23.085-6.098-30.95-51.26a33.107 33.107 0 0 0-31.771-15.817l11.76 38.765c10.873 8.205 20.009 19.999 27.876 34.41Z" fill="#fbfbfb" fill-rule="evenodd" data-name="Path [FILL:STYLE1/BACKGROUND]"/><path d="m982.122 333.944 44.427-10.889-8.92-81.777c-.851-7.798-7.792-13.477-15.604-12.767l-14.676 1.334-20.036 9.147-7.404 7.84 2.259 9.662c-2.106 19.901-.483 37.17 11.087 47.417l8.867 30.033Z" fill="#fbfbfb" fill-rule="evenodd" data-name="Path [FILL:STYLE1/BACKGROUND]"/><path d="m968.184 245.526 21.778-10.454-10.888-24.391-18.295 3.484 7.405 31.36Z" fill="#737373" fill-rule="evenodd" data-name="Path [FILL:STYLE1/TEXT]"/><path d="M948.802 206.007a18.73 18.73 0 1 1 0 .1zM1064.879 345.65l.503 17.879a10.311 10.311 0 0 0 12.975 9.67 10.31 10.31 0 0 0 6.708-14.25l-6.684-14.606-20.907-49.654-14.373 5.227 21.778 45.734Z" fill="#737373" fill-rule="evenodd" data-name="Path [FILL:STYLE1/TEXT]"/><path d="m961.651 310.83 23.956 13.937c2.114-17.43-8.308-48.458-21.343-82.32a26.048 26.048 0 0 0-10.534 24.6l7.921 43.782Z" fill="#fbfbfb" fill-rule="evenodd" data-name="Path [FILL:STYLE1/BACKGROUND]"/><path d="m923.757 339.116 59.236-16.987-17.422-11.76-45.734 14.373-20.68 4.964a10.22 10.22 0 0 0-6.938 14.123 10.22 10.22 0 0 0 14.237 4.775l17.301-9.488ZM919.401 536.325l19.6 6.969 6.97-22.65-17.423-3.92-9.147 19.6Z" fill="#737373" fill-rule="evenodd" data-name="Path [FILL:STYLE1/TEXT]"/><path d="M971.669 443.986 990.1 481.48l32.529 66.17 33.537-16.115-37.022-86.677-.105-10.911-.33-33.952-47.041 43.992Z" fill="#3d3d3d" fill-rule="evenodd" data-name="Path [FILL:STYLE1/foreground]"/><path d="m1042.27 553.272 19.084-8.276L1051 523.682l-15.413 9.02 6.683 20.57Z" fill="#737373" fill-rule="evenodd" data-name="Path [FILL:STYLE1/TEXT]"/><path d="M989.401 241.345a17.87 17.87 0 0 1-12.284-3.26 33.7 33.7 0 0 1-8.81-9.45 61.233 61.233 0 0 1-8.622-20.034 11.744 11.744 0 0 1-11.443 3.981c-6.817-1.53-10.905-9.483-9.575-16.341 1.33-6.859 6.956-12.296 13.377-15.049 6.421-2.752 13.577-3.207 20.563-3.192 4.606.01 9.301.225 13.628 1.805 4.327 1.58 8.292 4.73 9.829 9.072.964 2.722.932 5.736 2.028 8.408 1.99 4.85 7.15 7.5 11.992 9.51 4.842 2.01 10.107 4.05 12.962 8.448 3.225 4.965 2.294 11.895-1.26 16.631-3.553 4.736-9.26 7.482-15.069 8.63-5.808 1.148-11.792.864-17.706.575" fill="#3c3c3c" fill-rule="evenodd" data-name="Path [FILL:STYLE1/BRAND]"/></g></svg>